<svg xmlns="http://www.w3.org/2000/svg" viewBox="0 0 1200 800">
  <defs><linearGradient id="sky" x1="0" x2="1" y1="0" y2="1"><stop stop-color="#9cc7c4"/><stop offset=".55" stop-color="#f0c892"/><stop offset="1" stop-color="#7b5a4a"/></linearGradient></defs>
  <rect width="1200" height="800" fill="url(#sky)"/>
  <circle cx="180" cy="150" r="58" fill="#ffe6ab"/>
  <path d="M160 575 L560 190 L1040 575Z" fill="#4d5147"/>
  <path d="M560 190 L665 575 H455Z" fill="#6b6b5c"/>
  <path d="M530 220 c24 20 53 20 82 0 c-15 58-68 60-82 0z" fill="#eadfce"/>
  <path d="M0 590 C245 552 470 615 715 565 C895 528 1040 552 1200 520 L1200 800 L0 800Z" fill="#b48355"/>
  <path d="M80 520h95v160H80zM205 480h125v200H205zM360 535h84v145h-84z" fill="#ead7b7"/>
</svg>
