<svg xmlns="http://www.w3.org/2000/svg" viewBox="0 0 1200 800">
  <defs>
    <linearGradient id="sky" x1="0" x2="1" y1="0" y2="1"><stop stop-color="#7ec8c4"/><stop offset=".55" stop-color="#f4d7b3"/><stop offset="1" stop-color="#d96c4a"/></linearGradient>
    <linearGradient id="sea" x1="0" x2="1"><stop stop-color="#0f766e"/><stop offset="1" stop-color="#67b7b2"/></linearGradient>
  </defs>
  <rect width="1200" height="800" fill="url(#sky)"/>
  <circle cx="920" cy="165" r="74" fill="#ffe4a6"/>
  <path d="M0 440 C190 405 330 450 510 420 C715 385 895 430 1200 385 L1200 800 L0 800Z" fill="url(#sea)"/>
  <path d="M0 525 C170 470 330 500 470 475 C640 445 780 455 910 420 C1020 390 1110 370 1200 350 L1200 800 L0 800Z" fill="#b9925a"/>
  <path d="M116 420 h78 v170 h-78zM214 360 h90 v230 h-90zM324 455 h72 v135 h-72zM432 392 h86 v198 h-86z" fill="#f1e0c2"/>
  <path d="M244 320 l46 40 h-92zM462 345 l48 47 h-96z" fill="#b85f46"/>
  <path d="M675 516 c75-22 148-20 222 0" fill="none" stroke="#f9ede0" stroke-width="12" stroke-linecap="round" opacity=".7"/>
</svg>
