<svg xmlns="http://www.w3.org/2000/svg" viewBox="0 0 1200 760" role="img" aria-labelledby="title desc">
  <title id="title">Sicily Roman mosaic</title>
  <desc id="desc">Roman villa mosaic inspired by geometric floors and late antique Sicilian heritage.</desc>
  <rect width="1200" height="760" fill="#cfa46d"/>
  <rect x="90" y="70" width="1020" height="620" fill="#efe0bd" stroke="#76533a" stroke-width="20"/>
  <g stroke="#76533a" stroke-width="10">
    <path d="M150 130 h900 v500 H150 Z" fill="none"/>
    <path d="M230 210 h740 v340 H230 Z" fill="none"/>
  </g>
  <g transform="translate(250 235)">
    <g fill="#304c5d">
      <rect x="0" y="0" width="70" height="70"/>
      <rect x="140" y="0" width="70" height="70"/>
      <rect x="280" y="0" width="70" height="70"/>
      <rect x="420" y="0" width="70" height="70"/>
      <rect x="560" y="0" width="70" height="70"/>
      <rect x="70" y="70" width="70" height="70"/>
      <rect x="210" y="70" width="70" height="70"/>
      <rect x="350" y="70" width="70" height="70"/>
      <rect x="490" y="70" width="70" height="70"/>
      <rect x="0" y="140" width="70" height="70"/>
      <rect x="140" y="140" width="70" height="70"/>
      <rect x="280" y="140" width="70" height="70"/>
      <rect x="420" y="140" width="70" height="70"/>
      <rect x="560" y="140" width="70" height="70"/>
    </g>
    <g fill="#b24d3e">
      <circle cx="105" cy="35" r="28"/>
      <circle cx="245" cy="35" r="28"/>
      <circle cx="385" cy="35" r="28"/>
      <circle cx="525" cy="35" r="28"/>
      <circle cx="35" cy="105" r="28"/>
      <circle cx="175" cy="105" r="28"/>
      <circle cx="315" cy="105" r="28"/>
      <circle cx="455" cy="105" r="28"/>
      <circle cx="595" cy="105" r="28"/>
    </g>
  </g>
  <path d="M600 180 q90 95 0 190 q-90 -95 0 -190 Z" fill="#d8b36f" stroke="#76533a" stroke-width="8"/>
  <path d="M520 455 q80 -80 160 0 q-80 80 -160 0 Z" fill="#8f6d46" stroke="#76533a" stroke-width="8"/>
  <path d="M500 455 h200" stroke="#efe0bd" stroke-width="12" stroke-linecap="round"/>
</svg>
